<?xml version="1.0" encoding="UTF-8" standalone="no"?>
<!--
category: Text
tags: [test, visual, user, design, a, b, 2]
version: "1.76"
unicode: "f25f"
-->

<svg
   width="24"
   height="24"
   viewBox="0 0 24 24"
   fill="none"
   stroke="currentColor"
   stroke-width="2"
   stroke-linecap="round"
   stroke-linejoin="round"
   version="1.1"
   id="svg5"
   sodipodi:docname="a-b-2.svg"
   inkscape:version="1.4.3 (0d15f75, 2025-12-25)"
   xmlns:inkscape="http://www.inkscape.org/namespaces/inkscape"
   xmlns:sodipodi="http://sodipodi.sourceforge.net/DTD/sodipodi-0.dtd"
   xmlns="http://www.w3.org/2000/svg"
   xmlns:svg="http://www.w3.org/2000/svg">
  <defs
     id="defs5" />
  <sodipodi:namedview
     id="namedview5"
     pagecolor="#ffffff"
     bordercolor="#000000"
     borderopacity="0.25"
     inkscape:showpageshadow="2"
     inkscape:pageopacity="0.0"
     inkscape:pagecheckerboard="0"
     inkscape:deskcolor="#d1d1d1"
     inkscape:zoom="20.958333"
     inkscape:cx="11.976143"
     inkscape:cy="12"
     inkscape:window-width="1366"
     inkscape:window-height="705"
     inkscape:window-x="-8"
     inkscape:window-y="-8"
     inkscape:window-maximized="1"
     inkscape:current-layer="svg5" />
  <path
     id="path1"
     style="stroke-width:1;stroke-dasharray:none;fill:none"
     d="M 20.236858 18.661968 C 19.963268 18.264264 19.504951 18 19 18 L 16 18 L 16 21 L 19 21 C 19.353085 21 19.679568 20.87269 19.93555 20.661968 " />
  <path
     d="M16 15h2.5c.84 -.01 1.5 .66 1.5 1.5s-.66 1.5 -1.5 1.5h-2.5v-3"
     id="path2"
     style="stroke-width:1;stroke-dasharray:none" />
  <path
     id="path3"
     style="stroke-width:1;stroke-dasharray:none;fill:none"
     d="M 8 5.9179688 L 8 9 " />
  <path
     id="path18"
     style="stroke-width:1;stroke-dasharray:none;fill:none"
     d="M 4 9 L 4 5 C 4 3.964 4.895 3 6 3 C 6.6934233 3 7.3041493 3.3796203 7.6629005 3.9184294 " />
  <path
     id="path4"
     style="stroke-width:1;stroke-dasharray:none;fill:none"
     d="M 19.298012 6.7271001 A 9 9 0 0 0 11.99 2.98 " />
  <path
     id="path15"
     style="stroke-width:1;stroke-dasharray:none;fill:none"
     d="M 20.99 11.98 A 9 9 0 0 0 20.409931 8.8012018 " />
  <path
     id="path14"
     style="stroke-width:1;stroke-dasharray:none;fill:none"
     d="M 4.5369739 17.025037 A 9 9 0 0 0 11.99 20.98 " />
  <path
     id="path17"
     style="stroke-width:1;stroke-dasharray:none;fill:none"
     d="M 2.99 11.98 A 9 9 0 0 0 3.4685357 14.875625 " />
  <path
     d="M8 7h-4"
     id="path5"
     style="stroke-width:1;stroke-dasharray:none" />
</svg>
