<?xml version="1.0" encoding="UTF-8" standalone="no"?>
<!--
tags: [test, visual, user, programming, software, coding, technical, developer, a, b]
category: Development
version: "1.11"
unicode: "ec36"
-->

<svg
   width="24"
   height="24"
   viewBox="0 0 24 24"
   fill="none"
   stroke="currentColor"
   stroke-width="2"
   stroke-linecap="round"
   stroke-linejoin="round"
   version="1.1"
   id="svg3"
   sodipodi:docname="a-b.svg"
   inkscape:version="1.4.3 (0d15f75, 2025-12-25)"
   xmlns:inkscape="http://www.inkscape.org/namespaces/inkscape"
   xmlns:sodipodi="http://sodipodi.sourceforge.net/DTD/sodipodi-0.dtd"
   xmlns="http://www.w3.org/2000/svg"
   xmlns:svg="http://www.w3.org/2000/svg">
  <defs
     id="defs3" />
  <sodipodi:namedview
     id="namedview3"
     pagecolor="#ffffff"
     bordercolor="#000000"
     borderopacity="0.25"
     inkscape:showpageshadow="2"
     inkscape:pageopacity="0.0"
     inkscape:pagecheckerboard="0"
     inkscape:deskcolor="#d1d1d1"
     inkscape:zoom="10.479167"
     inkscape:cx="8.6838966"
     inkscape:cy="4.9145129"
     inkscape:window-width="1366"
     inkscape:window-height="705"
     inkscape:window-x="-8"
     inkscape:window-y="-8"
     inkscape:window-maximized="1"
     inkscape:current-layer="svg3" />
  <path
     id="path1"
     style="stroke-width:1;stroke-dasharray:none;fill:none"
     d="M 8 12 L 3 12 " />
  <path
     id="path14"
     style="stroke-width:1;stroke-dasharray:none;fill:none"
     d="M 7.9427257 9.9679368 A 2.5 2.5 0 0 1 8 10.5 L 8 16 " />
  <path
     id="path13"
     style="stroke-width:1;stroke-dasharray:none;fill:none"
     d="M 7.9423276 9.9661123 A 2.5 2.5 0 0 1 7.9427257 9.9679368 " />
  <path
     id="path11"
     style="stroke-width:1;stroke-dasharray:none;fill:none"
     d="M 3 16 L 3 10.5 A 2.5 2.5 0 0 1 6.7605524 8.3410633 " />
  <path
     id="path2"
     style="stroke-width:1;stroke-dasharray:none;fill:none"
     d="M 12 13.925781 L 12 18 " />
  <path
     id="path17"
     style="stroke-width:1;stroke-dasharray:none;fill:none"
     d="M 12 6 L 12 11.925781 " />
  <path
     id="path3"
     style="stroke-width:1;stroke-dasharray:none;fill:none"
     d="M 20.623729 15.167692 A 2 2 0 0 1 19 16 L 16 16 " />
  <path
     id="path16"
     style="stroke-width:1;stroke-dasharray:none;fill:none"
     d="M 19 12 A 2 2 0 0 1 20.818588 13.167692 " />
  <path
     id="path15"
     style="stroke-width:1;stroke-dasharray:none;fill:none"
     d="M 16 16 L 16 8 L 19 8 A 2 2 0 0 1 19 12 L 16 12 " />
</svg>
