<?xml version="1.0" encoding="UTF-8" standalone="no"?>
<!--
tags: [apple, devices, connection, link, wifi, bluetooth, smart, home, house, main]
category: Buildings
version: "1.20"
unicode: "ecde"
-->

<svg
   width="24"
   height="24"
   viewBox="0 0 24 24"
   fill="none"
   stroke="currentColor"
   stroke-width="2"
   stroke-linecap="round"
   stroke-linejoin="round"
   version="1.1"
   id="svg2"
   sodipodi:docname="smart-home.svg"
   inkscape:version="1.4.3 (0d15f75, 2025-12-25)"
   xmlns:inkscape="http://www.inkscape.org/namespaces/inkscape"
   xmlns:sodipodi="http://sodipodi.sourceforge.net/DTD/sodipodi-0.dtd"
   xmlns="http://www.w3.org/2000/svg"
   xmlns:svg="http://www.w3.org/2000/svg">
  <defs
     id="defs2">
    <inkscape:path-effect
       effect="fillet_chamfer"
       id="path-effect7"
       is_visible="true"
       lpeversion="1"
       nodesatellites_param="F,0,0,1,0,0,0,1 @ F,0,0,1,0,0,0,1 @ F,0,0,1,0,0,0,1 @ F,0,0,1,0,0,0,1 @ F,0,0,1,0,0,0,1 @ F,0,0,1,0,0,0,1 @ F,0,0,1,0,0,0,1 @ F,0,0,1,0,0,0,1 @ F,0,0,1,0,0,0,1 @ F,0,0,1,0,0,0,1 @ F,0,1,1,0,0.49688627,0,1 @ F,0,0,1,0,0.49688627,0,1 @ F,0,0,1,0,0,0,1 @ F,0,0,1,0,0,0,1 @ F,0,0,1,0,0,0,1 @ F,0,0,1,0,0,0,1 @ F,0,0,1,0,0,0,1 @ F,0,0,1,0,0,0,1 @ F,0,0,1,0,0,0,1 @ F,0,0,1,0,0,0,1 @ F,0,0,1,0,0,0,1 @ F,0,0,1,0,0,0,1 @ F,0,0,1,0,0,0,1 @ F,0,0,1,0,0.49835174,0,1 @ F,0,0,1,0,0.49835174,0,1 @ F,0,0,1,0,0,0,1"
       radius="0"
       unit="px"
       method="auto"
       mode="F"
       chamfer_steps="1"
       flexible="false"
       use_knot_distance="true"
       apply_no_radius="true"
       apply_with_radius="true"
       only_selected="false"
       hide_knots="false" />
  </defs>
  <sodipodi:namedview
     id="namedview2"
     pagecolor="#ffffff"
     bordercolor="#000000"
     borderopacity="0.25"
     inkscape:showpageshadow="2"
     inkscape:pageopacity="0.0"
     inkscape:pagecheckerboard="0"
     inkscape:deskcolor="#d1d1d1"
     showgrid="false"
     inkscape:zoom="14.760854"
     inkscape:cx="19.307826"
     inkscape:cy="13.718718"
     inkscape:window-width="1366"
     inkscape:window-height="705"
     inkscape:window-x="-8"
     inkscape:window-y="-8"
     inkscape:window-maximized="1"
     inkscape:current-layer="svg2" />
  <path
     d="m 12.029297,3.5019531 c -0.686662,0 -1.37267,0.2220438 -1.943359,0.6660156 L 4.7519531,8.3144531 C 3.9807965,8.9141522 3.5288357,9.8375596 3.5292969,10.814453 v 7.201172 c 0,1.37479 1.1252104,2.5 2.5,2.5 H 18.029297 c 1.374789,0 2.5,-1.12521 2.5,-2.5 v -7.201172 c 0,-0.9769082 -0.450994,-1.9004775 -1.222656,-2.4999999 l -0.09573,-0.074283 A 0.44808807,0.44808807 169.8553 0 0 18.555791,8.357393 l -0.0061,0.00982 a 0.5519829,0.5519829 79.906151 0 0 0.129447,0.7271657 l 0.01423,0.011087 c 0.528338,0.4104776 0.835938,1.0398932 0.835938,1.7089842 v 7.201172 c 0,0.834349 -0.665651,1.5 -1.5,1.5 H 6.0292969 c -0.8343495,0 -1.5,-0.665651 -1.5,-1.5 V 10.814453 C 4.5289811,10.145541 4.8371974,9.516103 5.3652344,9.1054688 L 10.699219,4.9570312 C 11.091341,4.6519775 11.560365,4.5 12.029297,4.5 c 0.468932,0 0.937956,0.1519775 1.330078,0.4570312 l 1.622127,1.2606063 a 0.44909036,0.44909036 169.87555 0 0 0.65684,-0.1172902 l 0.0046,-0.00734 A 0.55316266,0.55316266 79.883075 0 0 15.512832,5.3640186 L 13.974609,4.1679687 C 13.40392,3.7239969 12.715959,3.5019531 12.029297,3.5019531 Z"
     style="baseline-shift:baseline;display:inline;overflow:visible;opacity:1;vector-effect:none;fill:#000000;stroke:none;stroke-linecap:butt;stroke-linejoin:miter;enable-background:accumulate;stop-color:#000000;stop-opacity:1"
     id="path7"
     inkscape:path-effect="#path-effect7"
     inkscape:original-d="m 12.029297,3.5019531 c -0.686662,0 -1.37267,0.2220438 -1.943359,0.6660156 L 4.7519531,8.3144531 C 3.9807965,8.9141522 3.5288357,9.8375596 3.5292969,10.814453 v 7.201172 c 0,1.37479 1.1252104,2.5 2.5,2.5 H 18.029297 c 1.374789,0 2.5,-1.12521 2.5,-2.5 v -7.201172 c 0,-0.9769082 -0.450994,-1.9004775 -1.222656,-2.4999999 l -0.488282,-0.3789062 -0.53125,0.8535156 0.40625,0.3164063 c 0.528338,0.4104776 0.835938,1.0398932 0.835938,1.7089842 v 7.201172 c 0,0.834349 -0.665651,1.5 -1.5,1.5 H 6.0292969 c -0.8343495,0 -1.5,-0.665651 -1.5,-1.5 V 10.814453 C 4.5289811,10.145541 4.8371974,9.516103 5.3652344,9.1054688 L 10.699219,4.9570312 C 11.091341,4.6519775 11.560365,4.5 12.029297,4.5 c 0.468932,0 0.937956,0.1519775 1.330078,0.4570312 L 15.375,6.5234375 15.90625,5.6699219 13.974609,4.1679687 C 13.40392,3.7239969 12.715959,3.5019531 12.029297,3.5019531 Z" />
  <path
     d="M16 15c-2.21 1.333 -5.792 1.333 -8 0"
     id="path2"
     style="stroke-width:1;stroke-dasharray:none;stroke:#000000;fill:none" />
</svg>
