<?xml version="1.0" encoding="UTF-8" standalone="no"?>
<!--
tags: [apple, devices, connection, link, wifi, bluetooth, smart, home, house, main]
category: Buildings
version: "1.20"
unicode: "ecde"
-->

<svg
   width="24"
   height="24"
   viewBox="0 0 24 24"
   fill="none"
   stroke="currentColor"
   stroke-width="2"
   stroke-linecap="round"
   stroke-linejoin="round"
   version="1.1"
   id="svg2"
   sodipodi:docname="smart-home.svg"
   inkscape:version="1.4.3 (0d15f75, 2025-12-25)"
   xmlns:inkscape="http://www.inkscape.org/namespaces/inkscape"
   xmlns:sodipodi="http://sodipodi.sourceforge.net/DTD/sodipodi-0.dtd"
   xmlns="http://www.w3.org/2000/svg"
   xmlns:svg="http://www.w3.org/2000/svg">
  <defs
     id="defs2" />
  <sodipodi:namedview
     id="namedview2"
     pagecolor="#ffffff"
     bordercolor="#000000"
     borderopacity="0.25"
     inkscape:showpageshadow="2"
     inkscape:pageopacity="0.0"
     inkscape:pagecheckerboard="0"
     inkscape:deskcolor="#d1d1d1"
     showgrid="false"
     inkscape:zoom="10.4375"
     inkscape:cx="20.886228"
     inkscape:cy="9.0538922"
     inkscape:window-width="1366"
     inkscape:window-height="705"
     inkscape:window-x="-8"
     inkscape:window-y="-8"
     inkscape:window-maximized="1"
     inkscape:current-layer="svg2" />
  <path
     id="path12"
     style="baseline-shift:baseline;display:inline;overflow:visible;vector-effect:none;fill:#000000;stroke:none;stroke-linecap:butt;stroke-linejoin:miter;enable-background:accumulate;stop-color:#000000;stop-opacity:1"
     d="M 12.029297 3.5019531 C 11.342635 3.5019531 10.656625 3.7239969 10.085938 4.1679688 L 4.7519531 8.3144531 C 3.9807965 8.9141522 3.5288357 9.8375598 3.5292969 10.814453 L 3.5292969 18.015625 C 3.5292969 19.390415 4.6545073 20.515625 6.0292969 20.515625 L 18.029297 20.515625 C 19.404086 20.515625 20.529297 19.390415 20.529297 18.015625 L 20.529297 10.814453 C 20.529297 9.837545 20.078303 8.9139755 19.306641 8.3144531 L 13.974609 4.1679688 C 13.40392 3.7239969 12.715959 3.5019531 12.029297 3.5019531 z M 8.0097656 14.5 A 0.5 0.5 0 0 1 8.2578125 14.572266 C 10.260984 15.781608 13.736794 15.781854 15.742188 14.572266 A 0.5 0.5 0 0 1 16.121094 14.513672 A 0.5 0.5 0 0 1 16.427734 14.742188 A 0.5 0.5 0 0 1 16.257812 15.427734 C 13.843207 16.884146 10.155016 16.884392 7.7421875 15.427734 A 0.5 0.5 0 0 1 7.5722656 14.742188 A 0.5 0.5 0 0 1 8.0097656 14.5 z " />
</svg>
