<?xml version="1.0" encoding="UTF-8" standalone="no"?>
<!-- Created with Inkscape (http://www.inkscape.org/) -->

<svg
   width="138.32202"
   height="144.31714"
   viewBox="0 0 36.597702 38.18391"
   version="1.1"
   id="svg1"
   xml:space="preserve"
   inkscape:version="1.4.3 (0d15f75, 2025-12-25)"
   sodipodi:docname="drawing.svg"
   inkscape:export-filename="projects\zwack-icons\logo\zwack_icon.svg"
   inkscape:export-xdpi="96"
   inkscape:export-ydpi="96"
   xmlns:inkscape="http://www.inkscape.org/namespaces/inkscape"
   xmlns:sodipodi="http://sodipodi.sourceforge.net/DTD/sodipodi-0.dtd"
   xmlns="http://www.w3.org/2000/svg"
   xmlns:svg="http://www.w3.org/2000/svg"><sodipodi:namedview
     id="namedview1"
     pagecolor="#ffffff"
     bordercolor="#000000"
     borderopacity="0.25"
     inkscape:showpageshadow="2"
     inkscape:pageopacity="0.0"
     inkscape:pagecheckerboard="0"
     inkscape:deskcolor="#d1d1d1"
     inkscape:document-units="mm"
     inkscape:zoom="1.7923962"
     inkscape:cx="933.66635"
     inkscape:cy="528.62197"
     inkscape:window-width="1366"
     inkscape:window-height="705"
     inkscape:window-x="-8"
     inkscape:window-y="-8"
     inkscape:window-maximized="1"
     inkscape:current-layer="g50"><inkscape:page
       x="0"
       y="0"
       width="36.597702"
       height="38.18391"
       id="page2"
       margin="0"
       bleed="0" /></sodipodi:namedview><defs
     id="defs1" /><g
     inkscape:groupmode="layer"
     id="layer2"
     inkscape:label="Layer 2"
     style="display:inline"
     transform="translate(-201.55878,-101.16417)"><g
       id="g50"
       transform="rotate(15,253.75172,145.2124)"
       inkscape:export-filename="projects\zwack-icons\logo\zwack_icon.svg"
       inkscape:export-xdpi="96"
       inkscape:export-ydpi="96"><path
         d="m 214.34983,110.17625 c -1.27738,0.30616 -2.46853,0.71023 -3.43274,1.13326 -2.25148,0.9878 -5.24095,6.92973 -5.24095,6.92973 l 0.029,0.31803 c 0.10336,-0.0694 0.20957,-0.13115 0.31895,-0.18337 0.25512,-0.12179 0.53737,-0.2768 0.82497,-0.41525 0.0498,-0.024 0.0953,-0.0458 0.14539,-0.0684 0.14748,-0.0665 0.29507,-0.12751 0.44135,-0.17176 0.001,-3.5e-4 0.002,-0.001 0.003,-0.001 0.12058,-0.0363 0.23976,-0.0626 0.35613,-0.0746 0.0388,-0.004 0.0772,-0.006 0.11533,-0.007 0.0952,-0.002 0.18836,0.007 0.27815,0.0298 0.0449,0.0112 0.0889,0.0257 0.13211,0.0438 0.0432,0.0181 0.0854,0.04 0.1267,0.0656 0.0113,0.007 0.0225,0.0139 0.0336,0.0215 -1e-5,4.4e-4 -0.0966,2.83149 0.59064,3.98527 0.50358,0.84549 2.13696,0.97877 2.25113,1.95622 0.003,0.0243 0.005,0.0483 0.006,0.0722 0.002,0.0332 0.002,0.0663 7.9e-4,0.0988 -2e-5,3.8e-4 -2.2e-4,7.6e-4 -2.3e-4,10e-4 -0.001,0.0321 -0.004,0.0637 -0.008,0.0951 -10e-5,7.6e-4 -3.6e-4,0.002 -4.6e-4,0.002 -0.004,0.031 -0.009,0.0617 -0.016,0.092 -2.5e-4,10e-4 -4.5e-4,0.002 -7e-4,0.003 -0.002,0.009 -0.005,0.0176 -0.007,0.0266 -0.005,0.022 -0.0105,0.044 -0.0172,0.0656 -7e-5,2.2e-4 -3e-4,4.1e-4 -3.7e-4,6.3e-4 -0.0169,0.0542 -0.0384,0.10708 -0.0629,0.15863 -0.003,0.007 -0.006,0.0135 -0.009,0.0201 -6.4e-4,0.001 -0.002,0.002 -0.002,0.004 -0.0281,0.0561 -0.0603,0.11076 -0.0964,0.16332 -1.4e-4,2.1e-4 -2.2e-4,4.3e-4 -3.6e-4,6.4e-4 -0.002,0.003 -0.005,0.006 -0.008,0.01 -0.035,0.05 -0.0728,0.0986 -0.11414,0.14508 -4.2e-4,4.6e-4 -8.1e-4,9.3e-4 -10e-4,10e-4 -0.004,0.005 -0.01,0.009 -0.0139,0.0139 -0.0859,0.0942 -0.18326,0.18093 -0.28973,0.25846 -1.3e-4,1e-4 -3.7e-4,4e-5 -5e-4,1.4e-4 -0.001,10e-4 -0.003,0.002 -0.005,0.003 -0.0498,0.0361 -0.10064,0.0712 -0.1537,0.10325 l 4.94097,-0.0828 1.98228,-2.08798 c -9.9e-4,-0.002 -0.002,-0.003 -0.002,-0.005 -5e-4,-0.001 -8.4e-4,-0.003 -0.001,-0.004 -1.1e-4,-4.6e-4 -3.1e-4,-10e-4 -4e-4,-10e-4 -1.2e-4,-6.5e-4 6e-5,-0.001 -4e-5,-0.002 -2.7e-4,-0.002 -7e-4,-0.003 -8.4e-4,-0.005 -1.8e-4,-0.003 -8e-5,-0.005 -10e-6,-0.008 1.1e-4,-0.003 3.7e-4,-0.007 8.2e-4,-0.0109 1.9e-4,-0.002 5.5e-4,-0.003 8e-4,-0.005 2.8e-4,-0.002 7.9e-4,-0.004 0.001,-0.006 7.7e-4,-0.004 0.002,-0.009 0.003,-0.0136 0.001,-0.005 0.003,-0.0109 0.005,-0.0162 0.004,-0.0122 0.008,-0.0252 0.014,-0.0396 10e-4,-0.004 0.003,-0.007 0.004,-0.0114 0.006,-0.0135 0.013,-0.0287 0.0203,-0.044 0.007,-0.0137 0.0155,-0.0298 0.0233,-0.0448 0.0192,-0.0368 0.0415,-0.076 0.0684,-0.11998 0.01,-0.0164 0.0209,-0.033 0.032,-0.0503 0.0213,-0.0333 0.0458,-0.0683 0.0709,-0.10461 0.0375,-0.0542 0.0875,-0.11543 0.13331,-0.17535 0.0735,-0.0964 0.15228,-0.19315 0.2464,-0.30036 0.0567,-0.0646 0.11644,-0.1268 0.18026,-0.19381 0.099,-0.10399 0.20438,-0.20568 0.31979,-0.31199 0.0767,-0.0708 0.15209,-0.13795 0.23579,-0.20817 0.12895,-0.10825 0.26742,-0.20998 0.41203,-0.31316 0.10504,-0.075 0.20459,-0.15075 0.31743,-0.22095 0.039,-0.0242 0.0777,-0.047 0.11752,-0.0705 0.20409,-0.12051 0.41835,-0.23138 0.64469,-0.32736 0.0893,-0.0379 0.18047,-0.0723 0.273,-0.10525 0.0454,-0.0162 0.0894,-0.0343 0.13556,-0.0492 0.14811,-0.0478 0.29931,-0.0904 0.45483,-0.12348 0.3284,-0.0698 0.67263,-0.10383 1.03048,-0.0915 0.19085,0.007 0.38601,0.0271 0.58417,0.0618 3.21726,0.56407 4.72039,2.32696 5.94935,4.69687 0.18478,0.35633 0.34692,0.75253 0.4873,1.17374 0.14038,0.42121 0.25884,0.8672 0.3567,1.32323 0.26387,1.22943 0.37665,2.53052 0.35667,3.60926 -0.0137,0.74124 -0.18925,1.88396 -0.38447,3.00162 -0.0145,0.0835 -0.014,0.14299 -0.0288,0.22599 l 1.48514,-4.77794 c 0,0 0.69434,-4.46031 0.44227,-6.49563 -0.33561,-2.70972 -1.64794,-6.29843 -3.46852,-8.26662 -1.82058,-1.96819 -4.31802,-4.07364 -7.1592,-4.64982 -0.78358,-0.15892 -1.63299,-0.21583 -2.50617,-0.19463 -1.30979,0.0318 -2.67378,0.24003 -3.95117,0.54619 z m -0.037,4.49422 a 1.8266339,1.8266339 45 0 1 0.47278,-0.0625 1.8266339,1.8266339 45 0 1 1.82638,1.82661 1.8266339,1.8266339 45 0 1 -1.82647,1.82689 1.8266339,1.8266339 45 0 1 -1.82639,-1.82661 1.8266339,1.8266339 45 0 1 1.3537,-1.76441 z"
         style="display:inline;opacity:1;fill:#fae5c1;fill-rule:evenodd;stroke-width:0.264583;stroke-linecap:round;stroke-linejoin:round;stroke-miterlimit:5.1"
         id="path57" /><path
         id="path58"
         style="display:inline;opacity:1;fill:#da701c;fill-rule:evenodd;stroke-width:0.264583;stroke-linecap:round;stroke-linejoin:round;stroke-miterlimit:5.1"
         d="m 206.81776,149.76173 a 26.127733,26.127733 0 0 0 9.90992,-0.69996 26.127733,26.127733 0 0 0 13.22464,-8.4093 c -0.19655,-0.0485 -0.39398,-0.11086 -0.59181,-0.1881 -0.53253,-0.20789 -0.67842,-0.96305 -0.71652,-1.55797 l -0.0145,0.12961 c 0,0 -3.96927,1.2642 -7.91692,0.59071 -0.29723,-0.0507 -0.62717,-0.13034 -0.9734,-0.22656 -0.10774,-0.0299 -0.22302,-0.0691 -0.33403,-0.10256 -0.23479,-0.0707 -0.46747,-0.14196 -0.71203,-0.22543 -0.2815,-0.096 -0.55198,-0.20939 -0.83703,-0.3166 -0.49751,-0.18699 -0.91483,-0.34123 -1.38126,-0.53671 -1.1311,-0.47194 -1.63916,-0.71679 -2.07533,-0.92478 -0.14041,-0.0662 -0.52859,-0.23308 -0.60396,-0.26937 -1.37494,1.71184 -5.51784,6.71796 -6.56314,10.79837 -0.16281,0.63556 -0.30134,1.28315 -0.41464,1.93865 z" /><path
         d="m 220.73438,120.12517 c -2.0605,0.64831 -3.38792,2.61784 -3.2877,2.7807 l -1.98228,2.08798 -4.94097,0.0828 c -0.005,0.003 -0.0111,0.006 -0.0164,0.009 -0.0489,0.029 -0.10046,0.0526 -0.15136,0.078 -0.04,0.0199 -0.0783,0.0426 -0.1192,0.0603 -0.0916,0.0396 -0.18505,0.0737 -0.27897,0.10096 -0.002,5.3e-4 -0.004,9.5e-4 -0.005,10e-4 -0.42044,0.12203 -0.82133,0.23632 -1.20713,0.34271 1.36484,0.26112 2.95258,0.55014 3.9529,0.68222 1.54822,0.20444 2.67084,1.34043 3.18408,2.45309 0.7499,1.62573 -0.50862,5.29844 -0.61882,5.61312 0.01,0.005 0.33978,0.17187 0.40296,0.20607 0.41182,0.22084 1.13528,0.60434 2.16355,1.09428 0.39701,0.18852 0.81864,0.36596 1.23829,0.54826 0.29747,0.12915 0.59001,0.26871 0.88292,0.38402 0.19988,0.0787 0.39,0.14483 0.58259,0.21357 0.1396,0.0498 0.28507,0.10656 0.41894,0.1499 0.28291,0.0916 0.54536,0.16183 0.79161,0.21695 0.0352,0.008 0.0782,0.0233 0.11245,0.0303 1.14106,0.23372 2.8896,0.17848 4.35291,0.0647 1.46343,-0.11395 2.64161,-0.28624 2.64161,-0.28624 l -0.0136,0.12082 c 0.0257,-0.004 0.0396,-0.006 0.0396,-0.006 0,0 1.00907,-4.48804 1.04387,-6.36686 0.0348,-1.87883 -0.33301,-4.43304 -1.20067,-6.10623 -1.22896,-2.36991 -2.73209,-4.1328 -5.94935,-4.69687 -0.19816,-0.0347 -0.39331,-0.0548 -0.58417,-0.0618 -0.35785,-0.0123 -0.70208,0.0217 -1.03048,0.0915 -0.14368,0.0306 -0.28432,0.0682 -0.42169,0.11139 z"
         style="display:inline;opacity:1;fill:#e9a55a;fill-rule:evenodd;stroke-width:0.264583;stroke-linecap:round;stroke-linejoin:round;stroke-miterlimit:5.1"
         id="path55" /><path
         d="m 207.4392,117.71707 c -0.48232,0.14517 -0.98589,0.45195 -1.41507,0.65683 -0.96631,0.4613 -1.67898,1.66042 -2.46626,2.38619 -0.78727,0.72577 -2.76363,1.78497 -3.66682,2.36013 -1.74957,1.11413 -3.79455,0.71308 -4.79132,2.15266 -0.49892,0.7202 -0.008,2.67551 -0.008,2.67551 0,0 0.32345,-1.09673 0.76342,-1.08623 2.622,0.0628 4.48617,0.14893 6.25332,0.0172 2.7913,-0.20825 4.80263,-0.67044 7.84905,-1.55478 0.73812,-0.21427 1.45467,-0.82332 1.36547,-1.58673 -0.11417,-0.97745 -1.74755,-1.11073 -2.25113,-1.95622 -0.68726,-1.15387 -0.59064,-3.98527 -0.59064,-3.98527 -0.17404,-0.11812 -0.36715,-0.16462 -0.57054,-0.16062 -0.15254,0.003 -0.31068,0.033 -0.47146,0.0814 z"
         style="display:inline;opacity:1;fill:#1a3037;fill-rule:evenodd;stroke-width:0.264583;stroke-linecap:round;stroke-linejoin:round;stroke-miterlimit:5.1"
         id="path54" /><path
         d="m 215.19426,134.38208 -1.5131,2.58714 c 0,0 4.5616,2.23613 7.03142,2.6575 3.94765,0.67349 7.91692,-0.59071 7.91692,-0.59071 l 0.22137,-1.99707 c 0,0 -4.71217,0.68953 -6.99439,0.22208 -2.28223,-0.46744 -6.66222,-2.87894 -6.66222,-2.87894 z"
         style="display:inline;opacity:1;fill:#432f39;fill-rule:evenodd;stroke-width:0.264583;stroke-linecap:round;stroke-linejoin:round;stroke-miterlimit:5.1"
         id="path53" /><path
         d="m 214.31287,114.67047 a 1.8266339,1.8266339 45 0 0 -1.3537,1.76441 1.8266339,1.8266339 45 0 0 1.82639,1.82661 1.8266339,1.8266339 45 0 0 1.82647,-1.82689 1.8266339,1.8266339 45 0 0 -1.82638,-1.82661 1.8266339,1.8266339 45 0 0 -0.47278,0.0625 z"
         style="opacity:1;fill-rule:evenodd;stroke-width:0.264583;stroke-linecap:round;stroke-linejoin:round;stroke-miterlimit:5.1"
         id="path51"
         inkscape:export-filename="projects\zwack-icons\logo\zwack_icon.svg"
         inkscape:export-xdpi="96"
         inkscape:export-ydpi="96" /></g></g></svg>
